# xmcd CD database file
#
# Track frame offsets:
#	150
#	17185
#	33675
#	58922
#	70910
#	89567
#	105325
#	116282
#	127947
#	132472
#	143017
#	154460
#
# Disc length: 2335 seconds
#
# Revision: 0
# Processed by: cddbd v1.5.1PL0 Copyright (c) Steve Scherf et al.
# Submitted via: CDex 1.51
#
DISCID=aa091d0c
DTITLE=Johnny and The Credit Cards - I'm Ready
DYEAR=1991
DGENRE=Country
TTITLE0=Bring back that Cadillac
TTITLE1=Honky Tonk Hardwood Floor
TTITLE2=If I get through the Twilight
TTITLE3=I'm Ready
TTITLE4=Squeeze Me
TTITLE5=One more Night
TTITLE6=Whiskey Road
TTITLE7=A Chicken ain't nothin' but a Bird
TTITLE8=Ora el Labora
TTITLE9=Forgive Me, forget Me
TTITLE10=Texas My Home
TTITLE11=Fiddle Tune Medley
EXTD=YEAR: 1991
EXTT0=
EXTT1=
EXTT2=
EXTT3=
EXTT4=
EXTT5=
EXTT6=
EXTT7=
EXTT8=
EXTT9=
EXTT10=
EXTT11=
PLAYORDER=
